<svg width="56" height="56" viewBox="0 0 56 56" fill="none" xmlns="http://www.w3.org/2000/svg">
<path d="M56 28C56 43.464 43.464 56 28 56C12.536 56 0 43.464 0 28C0 12.536 12.536 0 28 0C43.464 0 56 12.536 56 28Z" fill="#DCC29C"/>
<path d="M31.0074 22.0137C31.9894 22.205 32.8918 22.6843 33.5993 23.3904C34.3067 24.0965 34.787 24.9972 34.9786 25.9773L31.0074 22.0137ZM31.0074 18C33.0476 18.2262 34.95 19.1381 36.4024 20.5859C37.8548 22.0336 38.7708 23.9313 39 25.9673L31.0074 18ZM37.9946 33.9747V36.985C37.9958 37.2644 37.9384 37.5411 37.8263 37.7971C37.7141 38.0532 37.5496 38.283 37.3433 38.4719C37.1369 38.6609 36.8934 38.8047 36.6281 38.8942C36.3629 38.9838 36.0818 39.017 35.803 38.9919C32.7093 38.6563 29.7377 37.6012 27.1267 35.9113C24.6976 34.3707 22.6382 32.3152 21.0946 29.8907C19.3955 27.2729 18.3382 24.2925 18.0082 21.1909C17.983 20.9134 18.0161 20.6338 18.1052 20.3697C18.1943 20.1057 18.3375 19.8631 18.5257 19.6573C18.7139 19.4515 18.9429 19.2871 19.1983 19.1745C19.4536 19.062 19.7297 19.0037 20.0088 19.0034H23.0249C23.5128 18.9986 23.9858 19.1711 24.3557 19.4886C24.7257 19.8062 24.9673 20.2471 25.0356 20.7293C25.1629 21.6927 25.399 22.6386 25.7394 23.549C25.8746 23.9081 25.9039 24.2985 25.8237 24.6737C25.7435 25.049 25.5572 25.3934 25.2869 25.6662L24.0101 26.9406C25.4413 29.4527 27.5253 31.5328 30.0423 32.9612L31.3191 31.6869C31.5924 31.4171 31.9375 31.2311 32.3135 31.1511C32.6895 31.0711 33.0805 31.1003 33.4404 31.2353C34.3525 31.575 35.3002 31.8107 36.2654 31.9377C36.7538 32.0065 37.1998 32.252 37.5186 32.6276C37.8375 33.0031 38.0069 33.4826 37.9946 33.9747Z" fill="#FCFCFC"/>
</svg>
