<svg width="30" height="30" viewBox="0 0 30 30" fill="none" xmlns="http://www.w3.org/2000/svg">
<path d="M29 15C29 22.732 22.732 29 15 29C7.26801 29 1 22.732 1 15C1 7.26801 7.26801 1 15 1C22.732 1 29 7.26801 29 15Z" stroke="#EADAC4" stroke-linecap="round" stroke-linejoin="round"/>
<path d="M19 8.33333H17C16.1159 8.33333 15.2681 8.68452 14.643 9.30964C14.0179 9.93477 13.6667 10.7826 13.6667 11.6667V13.6667H11.6667V16.3333H13.6667V21.6667H16.3333V16.3333H18.3333L19 13.6667H16.3333V11.6667C16.3333 11.4899 16.4036 11.3203 16.5286 11.1953C16.6536 11.0702 16.8232 11 17 11H19V8.33333Z" stroke="#EADAC4" stroke-linecap="round" stroke-linejoin="round"/>
</svg>
