<svg width="30" height="30" viewBox="0 0 30 30" fill="none" xmlns="http://www.w3.org/2000/svg">
<path d="M18.6667 11.3333H18.6742M29 15C29 22.732 22.732 29 15 29C7.26801 29 1 22.732 1 15C1 7.26801 7.26801 1 15 1C22.732 1 29 7.26801 29 15ZM11.6667 8.33333H18.3333C20.1743 8.33333 21.6667 9.82572 21.6667 11.6667V18.3333C21.6667 20.1743 20.1743 21.6667 18.3333 21.6667H11.6667C9.82572 21.6667 8.33333 20.1743 8.33333 18.3333V11.6667C8.33333 9.82572 9.82572 8.33333 11.6667 8.33333ZM17.6668 14.5801C17.749 15.1349 17.6543 15.7015 17.3959 16.1994C17.1376 16.6973 16.7289 17.101 16.2278 17.3532C15.7268 17.6054 15.1591 17.6931 14.6053 17.604C14.0515 17.5149 13.5399 17.2535 13.1433 16.8568C12.7467 16.4602 12.4853 15.9486 12.3961 15.3949C12.307 14.8411 12.3948 14.2733 12.647 13.7723C12.8992 13.2713 13.3029 12.8626 13.8008 12.6042C14.2986 12.3459 14.8653 12.2511 15.4201 12.3334C15.986 12.4173 16.51 12.681 16.9146 13.0856C17.3191 13.4902 17.5828 14.0141 17.6668 14.5801Z" stroke="#EADAC4" stroke-linecap="round" stroke-linejoin="round"/>
</svg>
