<svg width="30" height="30" viewBox="0 0 30 30" fill="none" xmlns="http://www.w3.org/2000/svg">
<path d="M21.6667 11C21.6667 10.2667 21.0667 9.66667 20.3333 9.66667H9.66667C8.93333 9.66667 8.33333 10.2667 8.33333 11M21.6667 11V19C21.6667 19.7333 21.0667 20.3333 20.3333 20.3333H9.66667C8.93333 20.3333 8.33333 19.7333 8.33333 19V11M21.6667 11L15 15.6667L8.33333 11M29 15C29 22.732 22.732 29 15 29C7.26801 29 1 22.732 1 15C1 7.26801 7.26801 1 15 1C22.732 1 29 7.26801 29 15Z" stroke="#EADAC4" stroke-linecap="round" stroke-linejoin="round"/>
</svg>
