<svg width="30" height="30" viewBox="0 0 30 30" fill="none" xmlns="http://www.w3.org/2000/svg">
<path d="M29 15C29 22.732 22.732 29 15 29C7.26801 29 1 22.732 1 15C1 7.26801 7.26801 1 15 1C22.732 1 29 7.26801 29 15Z" stroke="#EADAC4" stroke-linecap="round" stroke-linejoin="round"/>
<path d="M21.6665 18.28V20.28C21.6673 20.4656 21.6292 20.6494 21.5549 20.8195C21.4805 20.9897 21.3714 21.1424 21.2346 21.2679C21.0978 21.3934 20.9362 21.489 20.7604 21.5484C20.5845 21.6079 20.3981 21.63 20.2132 21.6133C18.1617 21.3904 16.1912 20.6894 14.4599 19.5666C12.8491 18.5431 11.4834 17.1774 10.4599 15.5666C9.33318 13.8274 8.63202 11.8473 8.41319 9.78663C8.39653 9.60228 8.41844 9.41647 8.47753 9.24105C8.53661 9.06563 8.63157 8.90443 8.75637 8.76771C8.88117 8.631 9.03306 8.52177 9.20239 8.44698C9.37171 8.37219 9.55475 8.33348 9.73986 8.3333H11.7399C12.0634 8.33012 12.3771 8.44469 12.6224 8.65566C12.8677 8.86663 13.0279 9.1596 13.0732 9.47997C13.1576 10.12 13.3142 10.7485 13.5399 11.3533C13.6296 11.5919 13.649 11.8512 13.5958 12.1006C13.5426 12.3499 13.4191 12.5787 13.2399 12.76L12.3932 13.6066C13.3422 15.2757 14.7242 16.6576 16.3932 17.6066L17.2399 16.76C17.4211 16.5807 17.65 16.4572 17.8993 16.404C18.1486 16.3509 18.4079 16.3703 18.6465 16.46C19.2514 16.6857 19.8798 16.8422 20.5199 16.9266C20.8437 16.9723 21.1395 17.1354 21.3509 17.385C21.5623 17.6345 21.6746 17.953 21.6665 18.28Z" stroke="#EADAC4" stroke-linecap="round" stroke-linejoin="round"/>
</svg>
