<svg width="15" height="13" viewBox="0 0 15 13" fill="none" xmlns="http://www.w3.org/2000/svg">
<path d="M13.5828 4.51721L9.50882 3.94064L7.68764 0.345331C7.63789 0.246893 7.55606 0.167206 7.45497 0.118768C7.20145 -0.00310702 6.89337 0.0984555 6.76661 0.345331L4.94543 3.94064L0.871434 4.51721C0.759115 4.53283 0.656422 4.58439 0.577799 4.66252C0.482747 4.75765 0.430369 4.88564 0.432174 5.01837C0.433979 5.15109 0.48982 5.27768 0.587426 5.37033L3.53502 8.16877L2.83863 12.1203C2.8223 12.2123 2.83275 12.3068 2.86879 12.3932C2.90482 12.4797 2.96501 12.5545 3.04252 12.6094C3.12004 12.6642 3.21177 12.6968 3.30733 12.7034C3.40288 12.71 3.49844 12.6905 3.58315 12.6469L7.22713 10.7813L10.8711 12.6469C10.9706 12.6985 11.0861 12.7156 11.1968 12.6969C11.476 12.65 11.6638 12.3922 11.6156 12.1203L10.9192 8.16877L13.8668 5.37033C13.9471 5.29377 14 5.19377 14.016 5.08439C14.0594 4.81096 13.8636 4.55783 13.5828 4.51721Z" fill="#DCC29C"/>
</svg>
